<svg height="448pt" viewBox="0 0 448 448" width="448pt" xmlns="http://www.w3.org/2000/svg"><path d="m48 0h48v80h-48zm0 0"/><path d="m352 0h48v80h-48zm0 0"/><path d="m416 72v16c0 4.417969-3.582031 8-8 8h-64c-4.417969 0-8-3.582031-8-8v-16h-224v16c0 4.417969-3.582031 8-8 8h-64c-4.417969 0-8-3.582031-8-8v-16h-32v48h448v-48zm0 0"/><path d="m344 240c-57.4375 0-104 46.5625-104 104s46.5625 104 104 104 104-46.5625 104-104c-.054688-57.414062-46.585938-103.945312-104-104zm80 112h-72v64h-16v-64h-72v-16h72v-72h16v72h72zm0 0"/><path d="m200 160h48v48h-48zm0 0"/><path d="m288 160h48v48h-48zm0 0"/><path d="m376 160h48v48h-48zm0 0"/><path d="m112 160h48v48h-48zm0 0"/><path d="m112 256h48v48h-48zm0 0"/><path d="m24 256h48v48h-48zm0 0"/><path d="m112 352h48v48h-48zm0 0"/><path d="m24 352h48v48h-48zm0 0"/><path d="m448 424v-20.398438c-4.207031 7.296876-9.167969 14.132813-14.800781 20.398438zm0 0"/><path d="m0 424h254.800781c-31.699219-35.183594-39.699219-85.742188-20.40625-128.992188 19.289063-43.253906 62.246094-71.082031 109.605469-71.007812h-64c-4.417969 0-8-3.582031-8-8v-64c0-4.417969 3.582031-8 8-8h64c4.417969 0 8 3.582031 8 8v64c0 4.417969-3.582031 8-8 8 42.980469.054688 82.652344 23.09375 104 60.398438v-148.398438h-448zm360-272c0-4.417969 3.582031-8 8-8h64c4.417969 0 8 3.582031 8 8v64c0 4.417969-3.582031 8-8 8h-64c-4.417969 0-8-3.582031-8-8zm-176 0c0-4.417969 3.582031-8 8-8h64c4.417969 0 8 3.582031 8 8v64c0 4.417969-3.582031 8-8 8h-64c-4.417969 0-8-3.582031-8-8zm-88 0c0-4.417969 3.582031-8 8-8h64c4.417969 0 8 3.582031 8 8v64c0 4.417969-3.582031 8-8 8h-64c-4.417969 0-8-3.582031-8-8zm0 96c0-4.417969 3.582031-8 8-8h64c4.417969 0 8 3.582031 8 8v64c0 4.417969-3.582031 8-8 8h-64c-4.417969 0-8-3.582031-8-8zm0 96c0-4.417969 3.582031-8 8-8h64c4.417969 0 8 3.582031 8 8v64c0 4.417969-3.582031 8-8 8h-64c-4.417969 0-8-3.582031-8-8zm-88-96c0-4.417969 3.582031-8 8-8h64c4.417969 0 8 3.582031 8 8v64c0 4.417969-3.582031 8-8 8h-64c-4.417969 0-8-3.582031-8-8zm0 96c0-4.417969 3.582031-8 8-8h64c4.417969 0 8 3.582031 8 8v64c0 4.417969-3.582031 8-8 8h-64c-4.417969 0-8-3.582031-8-8zm0 0"/></svg>